<?xml version="1.0" encoding="UTF-8" standalone="no"?>
<svg
   xmlns:dc="http://purl.org/dc/elements/1.1/"
   xmlns:cc="http://creativecommons.org/ns#"
   xmlns:rdf="http://www.w3.org/1999/02/22-rdf-syntax-ns#"
   xmlns:svg="http://www.w3.org/2000/svg"
   xmlns="http://www.w3.org/2000/svg"
   xmlns:sodipodi="http://sodipodi.sourceforge.net/DTD/sodipodi-0.dtd"
   xmlns:inkscape="http://www.inkscape.org/namespaces/inkscape"
   width="512"
   height="512"
   viewBox="0 0 512 512"
   version="1.1"
   id="svg5"
   inkscape:version="1.0.2-2 (e86c870879, 2021-01-15)"
   sodipodi:docname="Logo_WoR.svg"
   inkscape:export-filename="C:\Users\jacen\Downloads\CARDSlogo.png"
   inkscape:export-xdpi="96"
   inkscape:export-ydpi="96">
  <metadata
     id="metadata57">
    <rdf:RDF>
      <cc:Work
         rdf:about="">
        <dc:format>image/svg+xml</dc:format>
        <dc:type
           rdf:resource="http://purl.org/dc/dcmitype/StillImage" />
      </cc:Work>
    </rdf:RDF>
  </metadata>
  <sodipodi:namedview
     id="namedview7"
     pagecolor="#ffffff"
     bordercolor="#666666"
     borderopacity="1.0"
     inkscape:pageshadow="2"
     inkscape:pageopacity="0.0"
     inkscape:pagecheckerboard="0"
     inkscape:document-units="px"
     showgrid="false"
     inkscape:zoom="1.42"
     inkscape:cx="19.53125"
     inkscape:cy="226.82617"
     inkscape:window-width="2560"
     inkscape:window-height="1377"
     inkscape:window-x="-8"
     inkscape:window-y="-8"
     inkscape:window-maximized="1"
     inkscape:current-layer="layer2"
     inkscape:document-rotation="0" />
  <defs
     id="defs2">
    <rect
       x="289.10891"
       y="142.57426"
       width="47.524752"
       height="59.405941"
       id="rect2713" />
  </defs>
  <g
     inkscape:groupmode="layer"
     id="layer2"
     inkscape:label="Color"
     style="display:inline"
     sodipodi:insensitive="true">
    <path
       style="fill:#ffffff;fill-opacity:1;stroke-width:0.0504433"
       d="m 294.98892,129.87069 c -9.29447,-0.46019 -18.43423,6.97175 -19.04557,16.43719 -2.93278,28.74706 -4.40847,57.63681 -6.63396,86.4492 -3.92562,57.95408 -8.31651,115.88462 -11.44813,173.88734 -0.034,8.59857 -1.14696,17.41315 0.60672,25.88883 3.73461,6.76021 11.28893,10.69405 18.88697,11.01248 40.99792,3.71391 82.12941,5.80388 123.18701,8.77352 20.20656,1.05809 40.3953,3.42454 60.64647,3.08469 9.4036,-0.057 16.91276,-9.21143 16.62097,-18.34905 5.72582,-68.06333 9.75918,-136.25902 14.43492,-204.40087 1.37856,-24.2931 3.70691,-48.55723 4.13868,-72.89047 0.008,-6.85826 -5.32991,-12.64983 -10.96305,-15.88178 -11.2818,-2.56232 -23.02515,-2.39982 -34.50616,-3.62561 -51.61145,-3.75779 -103.24138,-7.3976 -154.90011,-10.38505 -0.34155,-0.009 -0.68317,-0.002 -1.02476,-4.2e-4 z"
       id="path1464" />
    <path
       style="fill:#ffffff;fill-opacity:1;stroke-width:0.0504433"
       d="m 367.21921,81.745074 c -13.13031,2.046502 -25.71388,6.738973 -38.55165,10.088687 -46.91063,13.746829 -94.04721,26.761319 -140.69096,41.392839 -8.25752,1.60915 -15.1059,8.97886 -15.26231,17.50862 2.8514,15.88194 8.04321,31.27248 12.15054,46.86695 18.45079,64.53452 36.86518,129.08627 56.09576,193.3929 1.26959,3.32917 1.83708,7.10587 3.78325,10.09976 2.86779,0.28946 1.43161,-4.14013 2.11577,-5.84976 6.10096,-81.63492 10.74765,-163.4305 17.15852,-245.00802 0.15943,-8.34868 2.88005,-16.8292 9.11118,-22.63853 6.486,-6.58258 15.94976,-9.68726 25.08955,-8.57762 31.43271,1.08251 62.83636,4.41561 94.30454,5.24018 3.58194,-0.50364 1.35606,-4.56501 0.76847,-6.57389 -3.17097,-9.36858 -4.89844,-19.440174 -9.79064,-28.121919 -3.44384,-5.458089 -10.01325,-8.022621 -16.28202,-7.820197 z"
       id="path1503" />
    <path
       style="fill:#ffffff;fill-opacity:1;stroke-width:0.0504433"
       d="m 242.98276,62.448276 c -8.35805,-0.340264 -14.15296,6.985307 -20.75941,10.916372 -46.05718,33.532122 -92.17518,66.993742 -137.783695,101.132892 -8.063578,5.8261 -9.707842,18.33036 -3.545566,26.11083 23.004261,32.74888 46.940221,64.84403 70.366661,97.29372 26.34784,35.99502 52.34685,72.25435 79.01634,108.00677 0.62145,1.96317 3.75171,1.77111 2.70074,-0.52463 -22.00027,-77.51529 -44.80968,-154.8025 -66.54596,-232.39249 -1.87975,-8.43383 -5.3974,-16.78293 -5.06241,-25.55085 2.63422,-10.91307 10.06727,-21.83309 21.49686,-24.56997 30.9915,-9.72678 62.38809,-18.1498 93.396,-27.808112 1.63968,-2.222473 -1.88085,-4.632932 -2.66448,-6.664114 -5.92191,-7.978259 -11.34996,-16.614776 -18.90695,-23.164704 -3.33399,-2.540876 -7.67102,-2.859193 -11.70813,-2.785714 z"
       id="path1542" />
    <path
       style="fill:#ffffff;fill-opacity:1;stroke-width:0.0504433"
       d="m 63.591133,185.77094 c -11.602755,14.79535 -22.007414,30.58074 -32.830049,45.98029 -4.277856,6.39752 -8.814449,12.68225 -12.82266,19.22167 -0.802423,7.11059 -0.562491,15.96655 6.168719,20.3042 32.30239,24.21246 65.668412,46.97331 98.525057,70.42377 29.97821,21.0226 59.69664,42.43663 89.78159,63.29421 3.12257,0.19528 0.46266,-3.31598 -0.4409,-4.48561 -46.08474,-64.05471 -93.34122,-127.26555 -138.835003,-191.7441 -4.903406,-5.93732 -7.552188,-13.42262 -7.612025,-21.10773 -0.07122,-0.96884 -0.64656,-2.46028 -1.934729,-1.8867 z"
       id="path1581" />
    <path
       style="fill:#ffffff;fill-opacity:1;stroke-width:0.0504433"
       d="m 141.30049,88.029557 c -9.25996,-0.136611 -15.00072,8.24809 -19.74303,14.993263 -12.93153,18.05512 -26.105323,35.98151 -38.322238,54.51905 -0.288697,2.6287 3.026094,1.51863 3.985221,0.2069 25.296247,-18.06536 50.541427,-36.24374 75.192117,-55.17611 2.41077,-1.5332 1.1344,-4.317297 -0.92857,-5.464286 -5.11366,-3.465039 -10.19101,-8.06662 -16.50123,-8.966748 -1.22367,-0.113309 -2.45398,-0.15109 -3.68227,-0.112069 z"
       id="path1698" />
  </g>
  <g
     inkscape:label="Lines"
     inkscape:groupmode="layer"
     id="layer1"
     style="display:inline"
     sodipodi:insensitive="true">
    <path
       d="m 237.16532,50.689344 c -5.75289,1.479316 -10.84829,4.766678 -36.24314,23.340258 -25.14831,18.327028 -25.47704,18.573578 -27.12072,17.012078 -4.43794,-3.94483 -18.24484,-12.49196 -22.0253,-13.642534 -2.30116,-0.657474 -6.73908,-1.232756 -9.69772,-1.232756 -11.58795,0 -20.21726,5.25977 -28.84659,17.66954 -1.64366,2.21898 -25.559208,36.24315 -53.337402,75.60927 -27.695999,39.28396 -51.0362601,72.97939 -51.8580921,74.78743 -4.6844853,10.60174 -2.5477116,24.90175 4.9310371,33.44888 2.218959,2.54771 35.17475,26.46326 61.966723,44.95466 4.109206,2.87643 18.080481,12.65632 30.983374,21.77874 12.90288,9.12244 44.87245,31.72303 71.08915,50.21443 65.50064,46.18741 70.18513,49.55694 74.04777,53.00866 3.94483,3.6161 10.93047,6.41035 18.40922,7.47875 2.95862,0.41092 46.92706,3.53392 97.79894,6.98564 80.21156,5.42414 93.11446,6.0816 97.38803,5.25978 13.23163,-2.62989 23.0937,-12.98506 25.1483,-26.46325 0.98621,-6.08162 18.82013,-271.37153 18.82013,-279.34338 0,-9.86208 -4.19139,-18.73794 -11.67011,-24.573 -7.64311,-6.08162 -9.12244,-6.41036 -50.70753,-9.20462 -20.62819,-1.39712 -37.72244,-2.71207 -38.05119,-3.04079 -0.32874,-0.32874 -2.87645,-8.30059 -5.6707,-17.75175 -5.58851,-19.31323 -7.47874,-23.422432 -13.23163,-28.846582 -5.75286,-5.42414 -11.91667,-7.971849 -19.9707,-8.382763 -6.41035,-0.24655 -7.56093,0 -42.16039,10.026441 -19.55977,5.670704 -35.99658,10.355184 -36.57187,10.355184 -0.4931,0 -5.42414,-6.24598 -10.84829,-13.806908 -11.83449,-16.436794 -15.28622,-20.052896 -22.18967,-23.25807 -5.83508,-2.794251 -14.71093,-3.780456 -20.38163,-2.383338 z m 17.83392,15.450598 c 3.45173,2.38333 22.18968,27.367258 21.20347,28.189108 -0.32875,0.32873 -21.94312,6.6569 -48.15981,14.21782 -26.13452,7.56093 -48.89947,14.38222 -50.54316,15.20404 -10.76611,5.58853 -18.57358,19.88853 -16.92989,31.22992 0.4109,2.71207 53.50175,187.95478 71.58225,249.51059 0.9862,3.36953 0.9862,3.86264 0,2.87643 C 229.76877,404.73798 81.673203,201.25041 79.782974,198.04522 76.331251,191.88143 77.399635,182.67683 82.248493,177.08832 84.056541,175.03371 231.74117,66.797414 235.68602,64.742809 c 5.42413,-2.958624 14.05344,-2.301151 19.31322,1.397133 z m 118.5915,17.012085 c 2.79426,0.821834 5.34196,2.383333 7.56092,4.602303 3.53391,3.6161 3.94484,4.68449 10.60173,27.44945 l 2.46553,8.2184 -3.45173,0.24656 c -1.80805,0.0823 -24.32646,-1.23277 -49.96787,-2.95863 -34.02417,-2.38333 -47.83107,-3.04081 -51.20063,-2.46551 -12.73851,1.97242 -23.5046,12.49194 -25.88794,25.31265 -0.49312,2.46552 -4.52013,59.99432 -9.04026,127.7961 -4.5201,67.80179 -8.46494,125.49495 -8.79368,128.12483 -0.65747,4.84886 -0.82183,4.19139 -36.73624,-119.90643 -32.70922,-113.24954 -35.99659,-125.24839 -35.66784,-129.52196 0.41091,-5.34197 2.95862,-9.94427 7.47874,-13.39599 2.13676,-1.64367 23.01152,-7.97185 90.64894,-27.53165 48.3242,-13.97126 89.16961,-25.805753 90.73113,-26.216674 4.19138,-1.232764 6.57472,-1.150583 11.2592,0.246551 z M 148.40661,89.56238 c 3.45172,1.31494 15.03967,9.36897 15.03967,10.51955 0,0.49311 -0.82184,1.5615 -1.80804,2.46552 -3.36955,2.87644 -79.143195,58.02189 -79.471935,57.77533 -0.08219,-0.0822 4.109203,-6.41035 9.533347,-14.05346 5.341962,-7.56091 15.943698,-22.60058 23.504618,-33.28451 13.64255,-19.31324 16.10808,-21.94313 21.77877,-23.66899 3.20517,-0.9862 8.38276,-0.82183 11.42357,0.24656 z m 240.71691,47.00924 c 50.05003,3.36954 92.53918,6.6569 94.34722,7.15001 4.35574,1.31493 9.77987,6.65689 11.58792,11.58793 1.47932,3.86264 1.31497,5.42415 -8.05401,144.726 -8.87588,131.57657 -9.69772,141.1099 -11.34141,144.64383 -1.89022,4.10918 -5.42413,7.47874 -9.53333,9.28678 -4.60231,1.89023 -4.02702,1.89023 -159.27257,-8.7115 -37.64027,-2.54769 -38.4621,-2.71207 -44.6259,-9.04023 -6.08162,-6.24599 -6.41036,5.34195 4.19137,-150.72544 7.56093,-112.09897 9.69772,-140.61679 10.8483,-143.24668 2.87644,-6.90347 9.86207,-11.75233 16.92988,-11.83451 2.1368,0 44.79028,2.79425 94.92253,6.16381 z M 67.373188,201.3326 c 1.397134,3.28736 24.573011,35.75003 74.294332,103.79836 39.77705,54.40581 72.48628,99.44264 72.65064,99.93575 0.16439,0.49309 -1.72586,-0.57529 -4.10921,-2.38335 -2.46551,-1.80804 -19.06666,-13.56034 -36.90059,-26.13451 C 134.18877,349.01723 92.603682,319.67754 53.566283,292.06372 37.622593,280.80451 23.48694,270.36716 22.171989,268.80565 c -3.944822,-4.43794 -5.259764,-12.16324 -3.122981,-18.16267 0.575286,-1.47929 11.012658,-16.84771 23.17589,-34.18853 l 22.189669,-31.47647 0.493102,5.75288 c 0.32874,3.20517 1.397134,7.97185 2.465519,10.60174 z"
       id="path23984"
       style="fill:#d50032;fill-opacity:1;stroke:none;stroke-width:0.0821835" />
  </g>
  <g
     inkscape:groupmode="layer"
     id="layer5"
     inkscape:label="Just Cardinal"
     sodipodi:insensitive="true"
     style="display:inline">
    <g
       transform="matrix(0.06684398,0.00483484,0.00483484,-0.06684398,267.25398,388.48249)"
       fill="#000000"
       stroke="none"
       id="g2235"
       style="fill:#d50032;fill-opacity:1">
      <path
         d="m 25,2795 c -15,-14 -25,-36 -25,-53 0,-39 45,-193 75,-260 20,-43 22,-57 13,-77 -14,-32 11,-83 100,-201 60,-79 68,-95 64,-126 -3,-31 4,-45 68,-124 40,-49 103,-120 140,-159 61,-63 68,-75 73,-119 6,-61 78,-207 148,-299 28,-37 124,-140 214,-230 179,-179 215,-233 237,-357 15,-87 34,-105 116,-120 238,-41 533,-194 789,-409 121,-102 148,-98 204,29 36,80 79,159 111,200 75,98 196,193 303,237 61,26 189,53 248,53 72,0 91,22 95,114 10,186 -90,414 -241,553 -37,35 -48,54 -71,129 -98,314 -312,571 -596,714 -194,97 -406,141 -783,160 -216,11 -342,29 -507,70 -224,56 -437,143 -614,249 -94,57 -126,62 -161,26 z m 125,-100 c 93,-56 297,-151 409,-190 236,-81 449,-121 725,-135 443,-24 660,-77 872,-215 101,-65 239,-199 303,-293 58,-86 126,-231 153,-327 21,-75 28,-86 103,-166 131,-141 189,-262 201,-425 l 7,-84 h -42 c -23,0 -77,-7 -119,-16 -256,-52 -460,-223 -579,-482 -20,-42 -37,-79 -39,-81 -1,-2 -29,20 -61,48 -246,216 -522,357 -834,425 -23,5 -28,13 -38,66 -7,33 -30,96 -53,141 -37,74 -59,101 -217,258 -177,176 -246,263 -295,372 -50,109 -47,117 27,100 44,-11 49,2 7,19 -53,22 -354,339 -338,356 3,2 17,0 32,-6 49,-18 47,-11 -16,63 -58,66 -126,157 -174,232 -15,23 -16,28 -4,23 8,-3 26,-9 40,-13 24,-8 24,-7 7,16 -41,58 -80,133 -102,198 -27,77 -46,151 -38,151 3,0 31,-16 63,-35 z"
         id="path2225"
         style="fill:#d50032;fill-opacity:1" />
      <path
         d="m 298,2483 c 75,-94 236,-226 399,-325 79,-48 104,-69 66,-53 -10,4 -80,25 -156,46 -75,21 -147,41 -160,45 -20,6 -19,3 8,-26 43,-46 248,-199 343,-256 45,-27 81,-52 82,-55 0,-3 -53,7 -117,23 -65,15 -128,31 -141,33 -23,6 -22,4 7,-32 41,-51 141,-139 248,-220 49,-36 89,-66 90,-67 2,-2 -47,0 -107,2 -68,3 -110,1 -110,-5 0,-19 101,-154 168,-225 37,-39 101,-97 142,-128 142,-108 225,-211 266,-329 l 23,-65 153,-52 c 84,-29 202,-77 262,-107 l 108,-54 44,60 c 60,81 89,176 81,271 -10,133 -65,238 -208,392 -141,154 -193,261 -193,400 0,72 4,90 33,148 18,36 36,66 40,66 5,0 73,-48 152,-107 175,-129 280,-199 376,-247 89,-44 202,-82 266,-89 45,-4 47,-3 47,20 0,45 -51,177 -96,250 -86,138 -214,246 -395,333 -183,86 -329,114 -692,130 -397,18 -704,89 -979,226 -37,19 -70,34 -74,34 -3,0 8,-17 24,-37 z"
         id="path2227"
         style="fill:#d50032;fill-opacity:1" />
      <path
         d="m 1857,1683 c 9,-61 52,-201 74,-245 99,-195 338,-239 419,-78 9,19 20,47 24,63 6,23 3,27 -16,27 -29,0 -39,-8 -58,-44 -55,-107 -197,-95 -267,24 -18,30 -33,57 -33,62 0,4 30,8 67,10 l 66,3 -69,46 c -39,26 -102,74 -141,108 l -72,62 z"
         id="path2229"
         style="fill:#d50032;fill-opacity:1" />
      <path
         d="m 2530,1395 c 0,-30 -49,-124 -86,-164 -20,-23 -53,-50 -73,-60 l -35,-18 70,-12 c 134,-23 310,-87 404,-146 23,-14 44,-25 46,-22 2,2 -4,28 -15,58 -49,144 -132,258 -255,350 -44,33 -56,36 -56,14 z"
         id="path2231"
         style="fill:#d50032;fill-opacity:1" />
      <path
         d="m 2308,1028 c 19,-52 22,-268 4,-311 -9,-22 -1,-17 41,26 91,93 291,177 427,177 l 65,1 -35,19 c -84,47 -398,130 -489,130 h -29 z"
         id="path2233"
         style="fill:#d50032;fill-opacity:1" />
    </g>
  </g>
  <g
     inkscape:groupmode="layer"
     id="g23237"
     inkscape:label="Text"
     style="display:inline"
     sodipodi:insensitive="true">
    <text
       xml:space="preserve"
       style="font-size:64px;line-height:1.25;font-family:'Russo One';-inkscape-font-specification:'Russo One';fill:#d50032;fill-opacity:1"
       x="-43.743202"
       y="243.53606"
       id="text23227"
       transform="rotate(-35)"><tspan
         sodipodi:role="line"
         id="tspan23225"
         x="-43.743202"
         y="243.53606">8</tspan></text>
    <text
       xml:space="preserve"
       style="font-size:64px;line-height:1.25;font-family:'Russo One';-inkscape-font-specification:'Russo One';fill:#d50032;fill-opacity:1"
       x="134.66927"
       y="230.7507"
       id="text23231"
       transform="rotate(-15)"><tspan
         sodipodi:role="line"
         id="tspan23229"
         x="134.66927"
         y="230.7507">5</tspan></text>
    <text
       xml:space="preserve"
       style="font-size:64px;line-height:1.25;font-family:'Russo One';-inkscape-font-specification:'Russo One';fill:#d50032;fill-opacity:1"
       x="292.99261"
       y="160.39313"
       id="text23235"
       transform="rotate(4.502959)"><tspan
         sodipodi:role="line"
         id="tspan23233"
         x="292.99261"
         y="160.39313"
         style="font-size:64px;fill:#d50032;fill-opacity:1">0</tspan></text>
    <text
       xml:space="preserve"
       style="font-size:64px;line-height:1.25;font-family:'Russo One';-inkscape-font-specification:'Russo One';display:inline;fill:#d50032;fill-opacity:1"
       x="461.74902"
       y="407.94031"
       id="text23235-5"
       transform="rotate(4.502959)"><tspan
         sodipodi:role="line"
         id="tspan23233-3"
         x="461.74902"
         y="407.94031"
         style="font-size:64px;fill:#d50032;fill-opacity:1">0</tspan></text>
    <text
       xml:space="preserve"
       style="font-size:64px;line-height:1.25;font-family:'Russo One';-inkscape-font-specification:'Russo One';display:inline;fill:#d50032;fill-opacity:1"
       x="-196.3013"
       y="214.41693"
       id="text5073"
       transform="rotate(-54)"><tspan
         sodipodi:role="line"
         id="tspan5071"
         x="-196.3013"
         y="214.41693">7</tspan></text>
  </g>
  <g
     inkscape:groupmode="layer"
     id="layer4"
     inkscape:label="Gears"
     style="display:none"
     sodipodi:insensitive="true">
    <text
       xml:space="preserve"
       id="text2711"
       style="font-style:normal;font-weight:normal;font-size:40px;line-height:1.25;font-family:sans-serif;white-space:pre;shape-inside:url(#rect2713);fill:#000000;fill-opacity:1;stroke:none;" />
    <path
       d="m 474.28572,380.17677 v -4.92495 c -2.51581,-0.89448 -4.10514,-1.14591 -4.90514,-3.07657 v -0.002 c -0.80305,-1.93676 0.15238,-3.25181 1.29066,-5.64876 l -3.4819,-3.4819 c -2.37867,1.13066 -3.70743,2.09523 -5.64876,1.29066 h -0.002 c -1.93371,-0.80152 -2.18666,-2.40152 -3.07657,-4.90514 h -4.92495 c -0.88686,2.49143 -1.14134,4.1021 -3.07657,4.90514 h -0.002 c -1.93676,0.80457 -3.24876,-0.14933 -5.64876,-1.29066 l -3.4819,3.4819 c 1.13523,2.38933 2.09523,3.70895 1.29066,5.64876 -0.80304,1.93676 -2.41371,2.19124 -4.90514,3.0781 v 4.92495 c 2.48686,0.88379 4.1021,1.14132 4.90514,3.07656 0.80762,1.95352 -0.17371,3.30057 -1.29066,5.64876 l 3.4819,3.48343 c 2.38019,-1.13219 3.70895,-2.09524 5.64876,-1.29067 h 0.002 c 1.93523,0.80152 2.18819,2.4061 3.07657,4.90514 h 4.92495 c 0.88686,-2.49295 1.14286,-4.09904 3.08876,-4.90971 h 0.002 c 1.92304,-0.79848 3.23047,0.1539 5.63504,1.29676 l 3.48191,-3.48343 c -1.13372,-2.38171 -2.09524,-3.70743 -1.29219,-5.64724 0.80305,-1.93676 2.41981,-2.19428 4.90819,-3.0796 z M 456,383.80952 c -3.36609,0 -6.09523,-2.72915 -6.09523,-6.09523 0,-3.36609 2.72914,-6.09523 6.09523,-6.09523 3.3661,0 6.09524,2.72914 6.09524,6.09523 0,3.36608 -2.72914,6.09523 -6.09524,6.09523 z"
       id="path119"
       style="fill:#ffffff;fill-opacity:1;stroke-width:1.52381" />
    <path
       d="m 315.80605,209.02329 v -4.92495 c -2.51581,-0.89448 -4.10514,-1.14591 -4.90514,-3.07657 v -0.002 c -0.80305,-1.93676 0.15238,-3.25181 1.29066,-5.64876 l -3.4819,-3.4819 c -2.37867,1.13066 -3.70743,2.09523 -5.64876,1.29066 h -0.002 c -1.93371,-0.80152 -2.18666,-2.40152 -3.07657,-4.90514 h -4.92495 c -0.88686,2.49143 -1.14134,4.1021 -3.07657,4.90514 h -0.002 c -1.93676,0.80457 -3.24876,-0.14933 -5.64876,-1.29066 l -3.4819,3.4819 c 1.13523,2.38933 2.09523,3.70895 1.29066,5.64876 -0.80304,1.93676 -2.41371,2.19124 -4.90514,3.0781 v 4.92495 c 2.48686,0.88379 4.1021,1.14132 4.90514,3.07656 0.80762,1.95352 -0.17371,3.30057 -1.29066,5.64876 l 3.4819,3.48343 c 2.38019,-1.13219 3.70895,-2.09524 5.64876,-1.29067 h 0.002 c 1.93523,0.80152 2.18819,2.4061 3.07657,4.90514 h 4.92495 c 0.88686,-2.49295 1.14286,-4.09904 3.08876,-4.90971 h 0.002 c 1.92304,-0.79848 3.23047,0.1539 5.63504,1.29676 l 3.48191,-3.48343 c -1.13372,-2.38171 -2.09524,-3.70743 -1.29219,-5.64724 0.80305,-1.93676 2.41981,-2.19428 4.90819,-3.0796 z m -18.28572,3.63275 c -3.36609,0 -6.09523,-2.72915 -6.09523,-6.09523 0,-3.36609 2.72914,-6.09523 6.09523,-6.09523 3.3661,0 6.09524,2.72914 6.09524,6.09523 0,3.36608 -2.72914,6.09523 -6.09524,6.09523 z"
       id="path119-4"
       style="display:inline;fill:#ffffff;fill-opacity:1;stroke-width:1.52381" />
    <path
       d="m 230.28619,207.03438 v -4.92495 c -2.51581,-0.89448 -4.10514,-1.14591 -4.90514,-3.07657 v -0.002 c -0.80305,-1.93676 0.15238,-3.25181 1.29066,-5.64876 l -3.4819,-3.4819 c -2.37867,1.13066 -3.70743,2.09523 -5.64876,1.29066 h -0.002 c -1.93371,-0.80152 -2.18666,-2.40152 -3.07657,-4.90514 h -4.92495 c -0.88686,2.49143 -1.14134,4.1021 -3.07657,4.90514 h -0.002 c -1.93676,0.80457 -3.24876,-0.14933 -5.64876,-1.29066 l -3.4819,3.4819 c 1.13523,2.38933 2.09523,3.70895 1.29066,5.64876 -0.80304,1.93676 -2.41371,2.19124 -4.90514,3.0781 v 4.92495 c 2.48686,0.88379 4.1021,1.14132 4.90514,3.07656 0.80762,1.95352 -0.17371,3.30057 -1.29066,5.64876 l 3.4819,3.48343 c 2.38019,-1.13219 3.70895,-2.09524 5.64876,-1.29067 h 0.002 c 1.93523,0.80152 2.18819,2.4061 3.07657,4.90514 h 4.92495 c 0.88686,-2.49295 1.14286,-4.09904 3.08876,-4.90971 h 0.002 c 1.92304,-0.79848 3.23047,0.1539 5.63504,1.29676 l 3.48191,-3.48343 c -1.13372,-2.38171 -2.09524,-3.70743 -1.29219,-5.64724 0.80305,-1.93676 2.41981,-2.19428 4.90819,-3.0796 z m -18.28572,3.63275 c -3.36609,0 -6.09523,-2.72915 -6.09523,-6.09523 0,-3.36609 2.72914,-6.09523 6.09523,-6.09523 3.3661,0 6.09524,2.72914 6.09524,6.09523 0,3.36608 -2.72914,6.09523 -6.09524,6.09523 z"
       id="path119-4-5"
       style="display:inline;fill:#ffffff;fill-opacity:1;stroke-width:1.52381" />
    <path
       d="m 102.5719,288.17724 v -4.92495 c -2.51581,-0.89448 -4.10514,-1.14591 -4.90514,-3.07657 v -0.002 c -0.80305,-1.93676 0.15238,-3.25181 1.29066,-5.64876 l -3.4819,-3.4819 c -2.378671,1.13066 -3.707431,2.09523 -5.648761,1.29066 h -0.002 c -1.93371,-0.80152 -2.18666,-2.40152 -3.07657,-4.90514 h -4.92495 c -0.88686,2.49143 -1.14134,4.1021 -3.07657,4.90514 h -0.002 c -1.93676,0.80457 -3.24876,-0.14933 -5.64876,-1.29066 l -3.4819,3.4819 c 1.13523,2.38933 2.09523,3.70895 1.29066,5.64876 -0.80304,1.93676 -2.41371,2.19124 -4.90514,3.0781 v 4.92495 c 2.48686,0.88379 4.1021,1.14132 4.90514,3.07656 0.80762,1.95352 -0.17371,3.30057 -1.29066,5.64876 l 3.4819,3.48343 c 2.38019,-1.13219 3.70895,-2.09524 5.64876,-1.29067 h 0.002 c 1.93523,0.80152 2.18819,2.4061 3.07657,4.90514 h 4.92495 c 0.88686,-2.49295 1.14286,-4.09904 3.08876,-4.90971 h 0.002 c 1.92304,-0.79848 3.23047,0.1539 5.635041,1.29676 l 3.48191,-3.48343 c -1.13372,-2.38171 -2.09524,-3.70743 -1.29219,-5.64724 0.80305,-1.93676 2.41981,-2.19428 4.90819,-3.0796 z m -18.285721,3.63275 c -3.36609,0 -6.09523,-2.72915 -6.09523,-6.09523 0,-3.36609 2.72914,-6.09523 6.09523,-6.09523 3.3661,0 6.09524,2.72914 6.09524,6.09523 0,3.36608 -2.72914,6.09523 -6.09524,6.09523 z"
       id="path119-4-1"
       style="display:inline;fill:#ffffff;fill-opacity:1;stroke-width:1.52381" />
    <path
       d="m 150.00047,233.60581 v -4.92495 c -2.51581,-0.89448 -4.10514,-1.14591 -4.90514,-3.07657 v -0.002 c -0.80305,-1.93676 0.15238,-3.25181 1.29066,-5.64876 l -3.4819,-3.4819 c -2.37867,1.13066 -3.70743,2.09523 -5.64876,1.29066 h -0.002 c -1.93371,-0.80152 -2.18666,-2.40152 -3.07657,-4.90514 h -4.92495 c -0.88686,2.49143 -1.14134,4.1021 -3.07657,4.90514 h -0.002 c -1.93676,0.80457 -3.24876,-0.14933 -5.64876,-1.29066 l -3.4819,3.4819 c 1.13523,2.38933 2.09523,3.70895 1.29066,5.64876 -0.80304,1.93676 -2.41371,2.19124 -4.90514,3.0781 v 4.92495 c 2.48686,0.88379 4.1021,1.14132 4.90514,3.07656 0.80762,1.95352 -0.17371,3.30057 -1.29066,5.64876 l 3.4819,3.48343 c 2.38019,-1.13219 3.70895,-2.09524 5.64876,-1.29067 h 0.002 c 1.93523,0.80152 2.18819,2.4061 3.07657,4.90514 h 4.92495 c 0.88686,-2.49295 1.14286,-4.09904 3.08876,-4.90971 h 0.002 c 1.92304,-0.79848 3.23047,0.1539 5.63504,1.29676 l 3.48191,-3.48343 c -1.13372,-2.38171 -2.09524,-3.70743 -1.29219,-5.64724 0.80305,-1.93676 2.41981,-2.19428 4.90819,-3.0796 z m -18.28572,3.63275 c -3.36609,0 -6.09523,-2.72915 -6.09523,-6.09523 0,-3.36609 2.72914,-6.09523 6.09523,-6.09523 3.3661,0 6.09524,2.72914 6.09524,6.09523 0,3.36608 -2.72914,6.09523 -6.09524,6.09523 z"
       id="path119-4-9"
       style="display:inline;fill:#ffffff;fill-opacity:1;stroke-width:1.52381" />
  </g>
</svg>
